<svg width="24" height="24" viewBox="0 0 24 24" fill="none" xmlns="http://www.w3.org/2000/svg">
<path d="M12.75 18.138V15H11.25V18.138C10.7496 18.3149 10.3278 18.6631 10.0593 19.1209C9.79072 19.5787 9.69265 20.1167 9.78241 20.6398C9.87216 21.1629 10.144 21.6375 10.5498 21.9796C10.9556 22.3217 11.4692 22.5093 12 22.5093C12.5308 22.5093 13.0444 22.3217 13.4503 21.9796C13.8561 21.6375 14.1278 21.1629 14.2176 20.6398C14.3074 20.1167 14.2093 19.5787 13.9407 19.1209C13.6722 18.6631 13.2504 18.3149 12.75 18.138Z" fill="#003573"/>
<path d="M19.5 9.00001C18.8367 9.00198 18.1928 9.22394 17.6692 9.63111C17.1456 10.0383 16.7718 10.6076 16.6065 11.25H7.39351C7.21096 10.543 6.77684 9.92686 6.1725 9.51706C5.56817 9.10725 4.83512 8.93191 4.11076 9.02392C3.3864 9.11592 2.72046 9.46895 2.23777 10.0168C1.75507 10.5647 1.48877 11.2698 1.48877 12C1.48877 12.7302 1.75507 13.4353 2.23777 13.9832C2.72046 14.5311 3.3864 14.8841 4.11076 14.9761C4.83512 15.0681 5.56817 14.8928 6.1725 14.483C6.77684 14.0731 7.21096 13.457 7.39351 12.75H16.6065C16.7477 13.2919 17.0381 13.7834 17.4446 14.1686C17.8511 14.5538 18.3575 14.8173 18.9062 14.9291C19.4549 15.041 20.0241 14.9968 20.5489 14.8015C21.0738 14.6062 21.5333 14.2676 21.8755 13.8242C22.2176 13.3808 22.4285 12.8504 22.4843 12.2932C22.5401 11.7359 22.4386 11.1742 22.1912 10.6718C21.9438 10.1694 21.5605 9.74642 21.0848 9.4509C20.6091 9.15539 20.06 8.99917 19.5 9.00001ZM4.50001 13.5C4.20334 13.5 3.91333 13.412 3.66665 13.2472C3.41998 13.0824 3.22772 12.8481 3.11419 12.574C3.00066 12.2999 2.97095 11.9983 3.02883 11.7074C3.08671 11.4164 3.22957 11.1491 3.43935 10.9393C3.64913 10.7296 3.9164 10.5867 4.20737 10.5288C4.49834 10.471 4.79994 10.5007 5.07403 10.6142C5.34812 10.7277 5.58239 10.92 5.74721 11.1667C5.91203 11.4133 6.00001 11.7033 6.00001 12C5.99961 12.3977 5.84145 12.779 5.56023 13.0602C5.27901 13.3414 4.89771 13.4996 4.50001 13.5ZM19.5 13.5C19.2033 13.5 18.9133 13.412 18.6667 13.2472C18.42 13.0824 18.2277 12.8481 18.1142 12.574C18.0007 12.2999 17.971 11.9983 18.0288 11.7074C18.0867 11.4164 18.2296 11.1491 18.4393 10.9393C18.6491 10.7296 18.9164 10.5867 19.2074 10.5288C19.4983 10.471 19.7999 10.5007 20.074 10.6142C20.3481 10.7277 20.5824 10.92 20.7472 11.1667C20.912 11.4133 21 11.7033 21 12C20.9996 12.3977 20.8414 12.779 20.5602 13.0602C20.279 13.3414 19.8977 13.4996 19.5 13.5Z" fill="#003573"/>
<path d="M14.25 3.75004C14.2517 3.33715 14.1398 2.93175 13.9264 2.57824C13.7131 2.22472 13.4066 1.93673 13.0405 1.74578C12.6744 1.55484 12.2629 1.46831 11.8509 1.49567C11.4389 1.52303 11.0424 1.66323 10.7048 1.90092C10.3672 2.1386 10.1015 2.4646 9.93675 2.84322C9.77206 3.22184 9.71472 3.63848 9.77102 4.04752C9.82731 4.45655 9.99508 4.84221 10.2559 5.16226C10.5168 5.48231 10.8607 5.7244 11.25 5.86204V9.00004H12.75V5.86204C13.1876 5.70823 13.5669 5.42256 13.8355 5.04434C14.1041 4.66612 14.2489 4.21394 14.25 3.75004Z" fill="#003573"/>
</svg>
