<svg width="24" height="24" viewBox="0 0 24 24" fill="none" xmlns="http://www.w3.org/2000/svg">
<path d="M18 1.50015C18.6612 1.50082 19.3142 1.64721 19.9124 1.9289C20.5106 2.21058 21.0395 2.62065 21.4612 3.12991C21.883 3.63918 22.1873 4.23513 22.3526 4.87537C22.5178 5.51562 22.54 6.18442 22.4174 6.83419C22.2949 7.48396 22.0306 8.09875 21.6435 8.6348C21.2564 9.17085 20.7559 9.615 20.1776 9.93565C19.5993 10.2563 18.9574 10.4456 18.2977 10.49C17.638 10.5344 16.9765 10.4329 16.3605 10.1926L11.25 17.0011V21.0001H13.5C13.6989 21.0001 13.8897 21.0792 14.0303 21.2198C14.171 21.3605 14.25 21.5512 14.25 21.7501C14.25 21.9491 14.171 22.1398 14.0303 22.2805C13.8897 22.4211 13.6989 22.5001 13.5 22.5001H7.5C7.30109 22.5001 7.11032 22.4211 6.96967 22.2805C6.82902 22.1398 6.75 21.9491 6.75 21.7501C6.75 21.5512 6.82902 21.3605 6.96967 21.2198C7.11032 21.0792 7.30109 21.0001 7.5 21.0001H9.75V17.0011L1.8 6.41115C1.60527 6.1515 1.5 5.8357 1.5 5.51115V5.26065C1.5 5.06174 1.57902 4.87097 1.71967 4.73032C1.86032 4.58967 2.05109 4.51065 2.25 4.51065H3.933L2.397 2.54565C2.27447 2.38891 2.21922 2.18991 2.24342 1.99243C2.26761 1.79496 2.36926 1.61518 2.526 1.49265C2.68274 1.37012 2.88174 1.31487 3.07922 1.33907C3.27669 1.36326 3.45647 1.46491 3.579 1.62165L5.835 4.51065H13.7505C14.0595 3.63035 14.6344 2.86781 15.3957 2.32849C16.157 1.78917 17.067 1.49971 18 1.50015ZM15.396 4.51065H18.75C18.9489 4.51065 19.1397 4.58967 19.2803 4.73032C19.421 4.87097 19.5 5.06174 19.5 5.26065V5.50965C19.5 5.8342 19.3947 6.15 19.2 6.40965L17.3145 8.92215C17.8563 9.04908 18.4227 9.02283 18.9504 8.84635C19.4781 8.66986 19.9463 8.35008 20.3027 7.92276C20.6591 7.49544 20.8896 6.97742 20.9685 6.4266C21.0474 5.87579 20.9716 5.31388 20.7495 4.8037C20.5273 4.29352 20.1677 3.85516 19.7108 3.53764C19.2538 3.22011 18.7175 3.03593 18.1619 3.00568C17.6063 2.97543 17.0532 3.1003 16.5645 3.36634C16.0758 3.63238 15.6707 4.0291 15.3945 4.51215V4.51065H15.396ZM7.008 6.01065L10.0425 9.89565C10.1581 10.0529 10.2078 10.249 10.1812 10.4424C10.1545 10.6357 10.0535 10.811 9.89964 10.9311C9.74578 11.0512 9.55118 11.1066 9.35715 11.0855C9.16313 11.0644 8.98496 10.9685 8.8605 10.8181L5.1045 6.01065H3.375L10.5 15.5011L17.625 6.01065H7.008Z" fill="#003573"/>
</svg>
