<svg width="41" height="36" viewBox="0 0 41 36" fill="none" xmlns="http://www.w3.org/2000/svg">
<g clip-path="url(#clip0_16_149)">
<path d="M20.3226 36C31.5464 36 40.6452 27.9411 40.6452 18C40.6452 8.05888 31.5464 0 20.3226 0C9.09873 0 0 8.05888 0 18C0 27.9411 9.09873 36 20.3226 36Z" fill="#3B5998"/>
<path d="M25.4317 18.7045H21.8053V30.4713H16.3112V18.7045H13.6981V14.5692H16.3112V11.8931C16.3112 9.97949 17.3375 6.98291 21.8542 6.98291L25.924 6.99799V11.012H22.9711C22.4868 11.012 21.8057 11.2264 21.8057 12.1392V14.573H25.9117L25.4317 18.7045Z" fill="white"/>
</g>
<defs>
<clipPath id="clip0_16_149">
<rect width="40.6452" height="36" fill="white"/>
</clipPath>
</defs>
</svg>
