<svg width="42" height="36" viewBox="0 0 42 36" fill="none" xmlns="http://www.w3.org/2000/svg">
<g clip-path="url(#clip0_16_158)">
<path d="M20.7419 35.9998C31.9658 35.9998 41.0645 27.9409 41.0645 17.9998C41.0645 8.05863 31.9658 -0.000244141 20.7419 -0.000244141C9.51807 -0.000244141 0.419342 8.05863 0.419342 17.9998C0.419342 27.9409 9.51807 35.9998 20.7419 35.9998Z" fill="#007AB9"/>
<path d="M32.8845 19.4481V26.8691H28.0268V19.9455C28.0268 18.207 27.3254 17.0198 25.5666 17.0198C24.2244 17.0198 23.4271 17.8191 23.0749 18.593C22.9471 18.8696 22.9141 19.2537 22.9141 19.6416V26.8688H18.0561C18.0561 26.8688 18.1213 15.1424 18.0561 13.9286H22.9145V15.7623C22.9047 15.7768 22.8909 15.7909 22.8822 15.8047H22.9145V15.7623C23.56 14.8825 24.7113 13.6247 27.2925 13.6247C30.4884 13.6247 32.8845 15.4742 32.8845 19.4481ZM12.9741 7.69092C11.3124 7.69092 10.2253 8.65705 10.2253 9.9264C10.2253 11.1688 11.2809 12.1628 12.9104 12.1628H12.9419C14.6362 12.1628 15.6897 11.1688 15.6897 9.9264C15.6575 8.65705 14.6362 7.69092 12.9741 7.69092ZM10.514 26.8691H15.3702V13.9286H10.514V26.8691Z" fill="#F1F2F2"/>
</g>
<defs>
<clipPath id="clip0_16_158">
<rect width="40.6452" height="36" fill="white" transform="translate(0.419373)"/>
</clipPath>
</defs>
</svg>
