<svg width="42" height="36" viewBox="0 0 42 36" fill="none" xmlns="http://www.w3.org/2000/svg">
<g clip-path="url(#clip0_16_153)">
<path d="M21.0325 35.9997C32.2563 35.9997 41.3549 27.9409 41.3549 17.9998C41.3549 8.0588 32.2563 0 21.0325 0C9.80876 0 0.710114 8.0588 0.710114 17.9998C0.710114 27.9409 9.80876 35.9997 21.0325 35.9997Z" fill="#55ACEE"/>
<path d="M33.4807 12.9361C32.6098 13.2781 31.673 13.5094 30.6905 13.6128C31.6936 13.0804 32.4634 12.2382 32.8268 11.2329C31.8881 11.7261 30.8481 12.0838 29.7421 12.2767C28.856 11.4408 27.5935 10.9185 26.1955 10.9185C23.5133 10.9185 21.3379 12.8452 21.3379 15.2209C21.3379 15.5582 21.381 15.8864 21.4643 16.2015C17.4272 16.0221 13.8477 14.3093 11.4516 11.7055C11.0336 12.3408 10.7938 13.0804 10.7938 13.8688C10.7938 15.3611 11.652 16.6786 12.9547 17.45C12.1588 17.4278 11.4092 17.2343 10.7546 16.9112C10.7543 16.9295 10.7543 16.9478 10.7543 16.9658C10.7543 19.0504 12.4294 20.7892 14.6512 21.1842C14.244 21.283 13.814 21.3353 13.3716 21.3353C13.0579 21.3353 12.754 21.3087 12.4576 21.2586C13.0757 22.9675 14.8692 24.2115 16.9954 24.2465C15.3326 25.4007 13.2383 26.0883 10.9618 26.0883C10.5706 26.0883 10.183 26.0681 9.80368 26.0279C11.9523 27.2492 14.5063 27.9612 17.2493 27.9612C26.1843 27.9612 31.0705 21.4053 31.0705 15.7192C31.0705 15.5328 31.0658 15.347 31.0564 15.1628C32.0062 14.5564 32.8297 13.7989 33.4807 12.9361Z" fill="#F1F2F2"/>
</g>
<defs>
<clipPath id="clip0_16_153">
<rect width="40.6452" height="36" fill="white" transform="translate(0.709717)"/>
</clipPath>
</defs>
</svg>
